<svg version="1.2" xmlns="http://www.w3.org/2000/svg" width="400" height="300"><path style="fill:#9f9f9f" d="M223.7 125.2c.2-.7.9-1 1.5-.8 6 .9 11.8 2.6 17.1 5.5 4.5 2.4 8.5 5.5 11.7 9.5 2.8 3.5 4.9 7.5 6 11.8 1 4 1.2 8.2.6 12.2-.6 3.8-2 7.4-4.1 10.6-2.1 3.1-5 5.8-8.5 7.5-3.7 1.9-8 2.7-12.2 2.5-5.2-.3-10.3-2.2-14.6-5.2-5-3.6-8.9-8.4-12.1-13.6-3.7-6.2-6.3-13.1-8-20.1-1.9-7.8-2.7-15.9-2.7-24 0-7.6.5-15.1 2-22.6 1.5-7.3 3.8-14.4 7.3-20.9 2.9-5.4 6.6-10.6 11.4-14.5 4.2-3.5 9.2-5.9 14.6-6.6 6.8-.9 13.8 1.1 18.9 5.7 5.2 4.5 8.1 11.2 8.4 18.1.2 5.9-1.1 12-4.3 17-2.9 4.7-7.2 8.2-11.9 11-4.9 2.8-10.4 4.8-15.9 6.5-5.5 1.6-11 2.9-16.6 4.2-8.1 2-16.1 4.1-24.2 6.1q-7.3 1.8-14.7 3.6c-3.7.9-7.3 2-10.7 3.7-6.7 3.3-12.2 8.7-15 15.7-2.7 6.5-3.1 14.2-.2 20.8 1.5 3.4 3.8 6.5 6.8 8.7 3.2 2.3 7.1 3.6 11 3.8 3.2.2 5.9-.1 8.9-1.1 2.4-.7 4.6-1.9 6.8-3.4 1.2-.8 2.1-1.5 3.1-2.4q1.6-1.5 3.1-3.1c2.1-2.3 3.8-4.8 5.4-7.5 3.7-6.1 6.2-12.8 7.9-19.7 1.8-7.7 2.6-15.5 2.6-23.4 0-7.6-.5-15.2-2.2-22.7-1.5-7.1-3.9-14-7.4-20.3-1.5-2.8-3.3-5.4-5.3-7.8-1.8-2.1-3.9-4.3-6-5.8q-1.6-1.2-3.4-2.2-.9-.5-1.7-1c-.7-.3-1-.4-1.7-.7q-1.7-.6-3.6-1l-1-.2q-.2-.1-.4-.1s-.5-.1-.3 0q-.8-.1-1.7-.2-1.6-.1-3.2 0-.8.1-1.5.1c-.2.1.3 0 0 0q-.1.1-.2.1h-.4q-.3.1-.7.2-1.4.2-2.8.7-.6.2-1.3.5c-.2.1.2-.1-.1.1q-.2 0-.3.1-.3.1-.6.3-1.3.6-2.4 1.4l-.6.4q-.1.1-.2.1l-.2.2.1-.1q-.6.4-1.1.9-1 .9-1.8 1.9-.3.2-.5.5-.1.1-.2.3s-.3.3-.1 0q-.3.6-.7 1.1-.8 1.1-1.4 2.4l-.6 1.2q-.1.2-.2.3c-.1.3.1-.1 0 .1l-.2.6q-1 2.6-1.5 5.4v.4-.1.2q-.1.3-.1.7-.1.7-.1 1.4-.1 1.4 0 2.9.1.7.1 1.4.1.2.1.4v.2q.1.3.1.7.3 1.4.6 2.9.5 1.5 1 2.9.2.4.3.7c-.1-.2 0 .1.1.2q0 .1.1.3.3.7.7 1.4.7 1.4 1.6 2.8.5.7 1 1.3.1.2.3.4 0 .1.1.2s-.1-.1 0 0q.2.3.5.6c3.2 3.9 6.9 6.7 11.3 9 5.4 2.8 11.5 4.4 17.6 5.2.6.1 1 1 .8 1.6-.2.7-.8.9-1.5.8-6-.8-11.9-2.4-17.4-5-4.5-2.3-8.7-5.3-12-9.1-2.9-3.3-5.2-7.2-6.5-11.5-1.2-3.8-1.7-7.9-1.3-11.8.4-3.9 1.5-7.6 3.4-10.9 1.9-3.3 4.5-6.1 7.7-8.1 3.4-2.1 7.4-3.2 11.4-3.4 5.1-.3 10.1 1 14.5 3.5 5.1 2.9 9.3 7.3 12.7 12.1 4 5.7 6.8 12.2 8.8 18.9 2.4 7.8 3.6 16 3.9 24.2.3 7.4 0 14.8-1.1 22.1-1.1 7.6-3.2 15-6.4 22-2.6 5.8-6.1 11.3-10.7 15.8-3.9 3.8-8.6 7-14 8.3-7.3 1.9-15.5.4-21.4-4.4-6-4.8-9-12.5-8.9-20 .1-7.6 3-15 8-20.7 5.2-5.9 12.3-9.2 19.7-11.3 4.7-1.3 9.4-2.4 14.1-3.5q7.4-1.8 14.7-3.6 9.4-2.4 18.8-4.7c5.6-1.3 11.2-2.8 16.7-4.9 2.5-1 5-2 7.5-3.4 2.4-1.3 4.7-2.8 6.6-4.4q1.5-1.3 2.8-2.8c1-1 1.6-1.8 2.3-2.9 1.6-2.3 2.6-4.5 3.3-7.2 1.6-5.9 1.4-12.8-1.4-18.5-2.8-5.8-8-10.1-14.3-11.6q-2.4-.5-4.8-.5-1.4 0-2.7.1c-.5.1-.4 0-.8.1q-.4.1-.9.2c-2.6.5-4.8 1.3-7 2.5-5 2.7-9 6.8-12.3 11.4-3.9 5.7-6.7 12-8.6 18.6-2.4 7.8-3.5 15.9-3.8 24.1-.2 7.2.1 14.5 1.2 21.7 1.2 7.4 3.3 14.7 6.5 21.4 2.7 5.7 6.2 11 10.8 15.2 3.8 3.5 8.4 6.1 13.6 7.1.2 0 .7.1.8.1.1 0 .6.1.8.1q.9.1 1.7.1 1.6 0 3.2-.1.4 0 .8-.1h.1q.2 0 .4-.1.7-.1 1.5-.3 1.4-.3 2.7-.8.4-.1.7-.3c-.3.1.1 0 .2 0q.1-.1.3-.2l1.2-.6q1.2-.7 2.4-1.5.1-.1.3-.2c-.3.1 0 0 .1-.1l.4-.4q.6-.5 1.1-.9l1.8-2c0-.1.3-.4.2-.3-.2.2 0-.1.1-.1l.4-.6q.4-.5.7-1.1.7-1.2 1.3-2.4.2-.3.3-.7c.1-.3-.1.2.1-.1q0-.1.1-.3.2-.7.5-1.3.4-1.4.7-2.7.2-.7.3-1.4v-.5l.1-.1c0-.2-.1.2 0 .1v-.7q.2-1.5.2-2.9 0-1.5-.2-3v-.4q0-.1-.1-.2c0-.2.1.2.1.1l-.2-.8-.2-1.4q-.4-1.5-.9-3-.2-.7-.5-1.5-.1-.2-.1-.4c-.1-.1-.2-.3-.1-.1q-.1-.4-.3-.7-1.4-3-3.3-5.7c-.3-.3-.6-.6-1-1.1q-.5-.7-1.1-1.4-1.3-1.3-2.6-2.4c-1.9-1.6-3.9-3.1-6.2-4.3-5.3-3-11.2-4.8-17.2-5.7-.7-.1-1.1-1-.9-1.6zm-6.9 1.2c-1.7 0-3.1-1.4-3.1-3.1 0-1.7 1.4-3.1 3.1-3.1 1.7 0 3.1 1.4 3.1 3.1 0 1.7-1.4 3.1-3.1 3.1zm-27.5-7.2c-1.7 0-3.1-1.3-3.1-3s1.4-3.1 3.1-3.1c1.7 0 3 1.4 3 3.1 0 1.7-1.3 3-3 3z"/><path fill-rule="evenodd" style="fill:#9f9f9f" d="M147.8 230.7q0-.2.2-.3.1-.2.3-.2.2 0 .4.2.1.1.1.3v3.4q.3-.4.8-.6.7-.4 1.5-.4.9 0 1.6.4.7.3 1.1 1 .4.7.4 1.8v3.2q0 .2-.2.4-.1.1-.3.1-.2 0-.4-.1-.1-.2-.1-.4v-3.2q0-.8-.3-1.3t-.8-.7q-.5-.3-1.1-.3-.6 0-1.1.2-.5.3-.8.7-.3.4-.3.9v3.7q0 .2-.1.4-.2.1-.4.1t-.3-.1q-.2-.2-.2-.4v-2.8zm11.6 9.4q-1 0-1.8-.5-.8-.4-1.2-1.2-.5-.8-.5-1.8t.4-1.8q.5-.8 1.2-1.2.7-.5 1.7-.5t1.7.4q.7.5 1.1 1.2.3.8.3 1.8 0 .2-.1.3-.1.1-.3.1h-5.1q.1.6.4 1 .3.6.9 1 .5.3 1.3.3.4 0 .9-.1.5-.2.7-.4.2-.2.3-.2.2 0 .3.1.2.2.2.4 0 .1-.1.3-.4.3-1.1.5-.6.3-1.2.3zm-2.6-3.2v-.3q0-.3.1-.5h-.3v.8zm4.6-.8v.4l.5-.4zm-.2-.9q-.3-.6-.8-.9-.5-.3-1.2-.3t-1.3.3q-.5.3-.8.9-.2.4-.2.9h4.5q0-.5-.2-.9zm5.5 4.9q-.9 0-1.7-.5-.8-.4-1.2-1.2-.5-.8-.5-1.8t.5-1.8q.5-.8 1.2-1.2.8-.5 1.8-.5t1.8.5q.8.4 1.2 1.2.5.8.5 1.8l-.7-.2-.3 1v1.4q-.4.5-1 .9-.7.4-1.6.4zm3.6-3.5v2.9q0 .2-.1.4-.2.1-.4.1t-.3-.1q-.2-.2-.2-.4v-.7q.1-.2.2-.3.4-.7.4-1.6zm-3.5 2.6q.8 0 1.3-.3.6-.4.9-1 .4-.6.4-1.3 0-.8-.4-1.3-.3-.6-.9-1-.5-.3-1.3-.3-.7 0-1.3.3-.5.4-.9 1-.3.5-.3 1.3 0 .7.3 1.3.4.6.9 1 .6.3 1.3.3zm7 .8h-.1q-.5 0-.9-.3-.4-.2-.7-.7-.2-.5-.2-1.2v-7.1q0-.2.2-.3.1-.2.3-.2.2 0 .3.2.2.1.2.3v7.1q0 .6.2.9.2.4.6.4h.3q.2 0 .3.1.1.1.1.3 0 .2-.2.4-.1.1-.4.1zm4.8 0h-.2q-.7 0-1.2-.3t-.8-.9q-.3-.5-.3-1.2v-3.3h-.8q-.2 0-.3-.2-.2-.1-.2-.3 0-.1.2-.3.1-.1.3-.1h.8v-1.9q0-.2.1-.4.1-.1.4-.1.2 0 .3.1.1.2.1.4v1.9h1.5q.1 0 .3.1.1.2.1.3 0 .2-.1.3-.2.2-.3.2H177v3.3q0 .6.4 1t1 .4h.3q.2 0 .3.2.2.1.2.3 0 .2-.2.4-.1.1-.4.1zm2.1-9.3q0-.2.2-.3.1-.2.3-.2.2 0 .4.2.1.1.1.3v3.4q.3-.4.8-.6.7-.4 1.5-.4.9 0 1.6.4.7.3 1.1 1 .4.8.4 1.8v3.2q0 .2-.2.4-.1.1-.3.1-.2 0-.4-.1-.1-.2-.1-.4v-3.2q0-.8-.3-1.3t-.8-.7q-.5-.3-1.1-.3-.6 0-1.1.2-.5.3-.8.7-.3.4-.3.9v3.7q0 .2-.1.4-.2.1-.4.1t-.3-.1q-.2-.2-.2-.4zm11.5 9.4q-.9 0-1.7-.5-.8-.4-1.2-1.2-.5-.8-.5-1.8t.5-1.8q.4-.8 1.1-1.2.8-.5 1.7-.5.8 0 1.4.3.7.3 1.2.9.1.2.1.3-.1.2-.3.3-.1.1-.3.1-.1 0-.3-.2-.7-.8-1.8-.8-.7 0-1.2.3-.5.4-.8.9-.3.6-.3 1.4 0 .7.3 1.3.3.6.9 1 .5.3 1.2.3.5 0 .9-.1l.8-.4q.1-.2.3-.2.1 0 .3.1.1.2.1.3.1.2-.1.3-.9.9-2.3.9zm7.4 0q-.9 0-1.7-.5-.7-.4-1.2-1.2-.4-.8-.4-1.8t.4-1.8q.5-.8 1.3-1.2.8-.5 1.7-.5 1 0 1.8.5.8.4 1.2 1.2.5.8.5 1.8l-.7-.2-.3 1v1.4q-.3.5-.9.9-.7.4-1.7.4zm3.6-3.5v2.9q0 .2-.1.4-.2.1-.4.1t-.3-.1q-.2-.2-.2-.4v-.7q.1-.2.2-.3.4-.7.4-1.6zm-3.4 2.6q.7 0 1.2-.3.6-.4.9-1 .4-.6.4-1.3 0-.8-.4-1.3-.3-.6-.9-1-.5-.3-1.2-.3-.8 0-1.3.3-.6.4-.9 1-.4.5-.4 1.3 0 .7.4 1.3.3.6.9 1 .5.3 1.3.3zm7.1-5.8q.6-.3 1.3-.3.6 0 .9.2.3.1.2.4 0 .2-.2.3H208.5q-.7-.1-1.3.2-.5.2-.8.6-.3.4-.3 1v3.7q0 .3-.2.4-.1.1-.3.1-.2 0-.4-.1-.1-.1-.1-.4v-5.9q0-.2.1-.3.2-.1.4-.1t.3.1q.2.1.2.3v.6q.3-.5.8-.8zm6.5 6.7q-1 0-1.8-.5-.7-.4-1.2-1.2-.4-.8-.4-1.8t.4-1.8q.4-.8 1.1-1.2.8-.5 1.7-.5 1 0 1.7.4.7.5 1.1 1.2.4.8.4 1.8 0 .2-.1.3-.2.1-.4.1h-5q0 .6.3 1 .3.6.9 1 .6.3 1.3.3.5 0 .9-.1.5-.2.8-.4.1-.2.3-.2.2 0 .3.1.1.2.1.4.1.1-.1.3-.4.3-1 .5-.7.3-1.3.3zm-2.5-3.2v-.8h-.3v.8zm4.6-.8v.4l.6-.4zm-.3-.9q-.3-.6-.8-.9-.5-.3-1.2-.3t-1.2.3q-.6.3-.9.9-.1.4-.2.9h4.6q-.1-.5-.3-.9zm8.5 4.9q-.8 0-1.4-.3-.6-.3-.9-.8-.3-.5-.3-1.2 0-.8.5-1.5t1.5-1.5l.2-.1-.7-.7q-.4-.4-.7-.9-.2-.4-.2-1 0-.5.3-1 .3-.4.8-.7.5-.3 1.1-.3.6 0 1.1.3.5.3.8.8.3.4.3 1 0 .5-.2.9t-.5.8q-.3.3-.8.7l-.1.1 2.4 2.4 1-1.1q.2-.2.3-.2.1 0 .3.1.2.2.2.3 0 .2-.2.4l-1.1 1.1 1.4 1.4q.2.2.2.3 0 .1-.1.3-.3.3-.6 0l-1.4-1.4-.3.3q-.6.7-1.3 1.1-.7.4-1.6.4zm.5-6.1q.5-.4.8-.9.2-.4.2-.9t-.3-.9q-.4-.4-1-.4t-.9.4q-.4.3-.4.8 0 .4.1.7.2.4.5.7l.7.7zm-.6 1.4q-.5.4-.9.8-.3.4-.5.8-.1.4-.1.7 0 .7.4 1.1.5.4 1.3.4.7 0 1.2-.3t1.1-.9l.3-.3-2.5-2.5zm.2-.2.7-.5-.6-.5-.6.5zm2.5 2.5.6.6.5-.6-.6-.6zm10.5 2.3q-.8 0-1.5-.2-.7-.3-1.2-.8-.1-.1-.1-.3 0-.2.2-.3.2-.2.4-.1.2 0 .3.1.3.4.8.6.5.1 1.1.1.9 0 1.3-.3t.4-.7q0-.5-.4-.8-.4-.3-1.4-.4-1.3-.2-1.8-.7-.6-.5-.6-1.2t.3-1.1q.3-.4.9-.6.6-.2 1.2-.2.9 0 1.5.2.6.3 1 .8.1.2.1.4l-.2.2q-.2.1-.4.1t-.3-.2q-.3-.3-.7-.5-.4-.2-1-.2-.7 0-1.1.3-.4.3-.4.7 0 .3.2.5.1.2.5.4.4.1 1.1.3.9.1 1.4.4.6.3.8.7.3.4.3.8 0 .6-.4 1.1-.3.4-.9.7-.6.2-1.4.2zm4.8 2.9q-.2 0-.4-.1-.1-.2-.1-.4v-5.9q0-1 .5-1.8.4-.7 1.2-1.2.8-.4 1.8-.4t1.8.4q.8.5 1.2 1.3.5.7.5 1.7t-.5 1.8q-.4.8-1.2 1.3-.7.4-1.7.4-.8 0-1.5-.3-.7-.4-1.1-1v3.7q0 .2-.2.4-.1.1-.3.1zm3-3.8q.7 0 1.3-.3.6-.3.9-.9.3-.6.3-1.4 0-.7-.3-1.3-.3-.6-.9-.9-.6-.4-1.3-.4-.7 0-1.3.4-.6.3-.9.9-.3.6-.3 1.3 0 .8.3 1.4.3.6.9.9.6.3 1.3.3zm8.4.9q-1 0-1.8-.4-.7-.5-1.2-1.3-.4-.8-.4-1.8t.4-1.7q.5-.8 1.3-1.3.8-.4 1.8-.4t1.7.4q.8.5 1.3 1.3.4.7.4 1.7l-.7-.1-.2.9v1.4q-.4.6-1 .9-.7.4-1.6.4zm3.5-3.5v3q0 .2-.1.3-.1.2-.3.2-.3 0-.4-.2-.1-.1-.1-.3v-.8q.1-.1.1-.2.5-.8.5-1.7zm-3.5 2.6q.7 0 1.3-.3.5-.3.9-.9.3-.6.3-1.4 0-.7-.3-1.3-.4-.6-.9-.9-.6-.4-1.3-.4-.7 0-1.3.4-.6.3-.9.9-.4.6-.4 1.3 0 .8.4 1.4.3.6.9.9.6.3 1.3.3zm-137.1-21.9h-.4v.4zm.1-3.3h1.4v5.1h-13.7v-1.2l2.5-.6v-16.4l-2.5-.5v-1.2l7.7-.2v1.3l-2.8.6v16.4h6.9zm-9.8 3.4v.4l.4-.5zm0-16.5.3.1-.3-.5zm2.3 0v-.5l-.3.6zm0 16.4h-.4l.4.5zm18.4-18.3v1.2l-2.5.6v16.5l2.5.5v1.2h-7.3v-1.2l2.4-.5v-16.5l-2.4-.5V199zm-2.5 1.8v-.3l-.3.4zm0 16.5-.4-.1.4.4zm-2.4 0v.4l.3-.4zm0-16.5h.4l-.4-.4zm15.6 18.2h-7.9v-1.2l2.4-.5v-16.5l-2.4-.4V199l4.8-.1h9.1v4.6h-1.4l-.5-2.9h-7.2v7.5h7v1.7h-7v7.4l3.1.5zm-5.5-1.7v.3l.4-.4zm0-16.5.4.1-.4-.5zm9.5-.1h.5l-.5-.3zm-7.2 0v-.5l-.5.5zm0 7.4h-.4l.4.4zm0 1.7v-.4l-.4.4zm0 7.4h-.3l.3.4zm23.7 0h-.4l-.1.4zm0-2.9h1.5v4.7H145v-1.3l2.5-.5v-16.5l-2.5-.4v-1.3l4.8-.1h9.4v4.5h-1.4l-.5-2.7h-7.4v7.1h7.2v1.8h-7.2v7.6h7.8zm-10.6 3v.4l.3-.5zm0-16.5.4.1-.4-.5zm9.8-.1h.5l-.5-.4zm-7.5 0v-.4l-.4.4zm0 7.2h-.4l.4.4zm0 1.8v-.5l-.4.5zm0 7.6h-.5l.5.4zm29-8.5q-.4-.1-1-.1l-.1.3q.6-.1 1.1-.2zm2.3.5q1.4.6 2.1 1.7.6 1.1.6 2.7t-.7 2.8q-.8 1.2-2.4 1.9-1.6.7-4.2.7h-8v-1.2l2.5-.6v-16.4l-2.5-.5v-1.2l4.8-.2h3.6q2 0 3.4.6t2.1 1.7q.7 1.1.7 2.6 0 2.1-1.3 3.4-1 1-3 1.5 1.3.1 2.3.5zm-10.1 8v.5l.4-.6zm0-16.4.5.1-.5-.6zm5.3-.1h-2.9v7.2h2.2q1.7 0 2.8-.4 1.2-.4 1.7-1.2.6-.9.6-2.1 0-1.2-.5-1.9-.5-.8-1.5-1.2-.9-.4-2.4-.4zm-2.9 0v-.4l-.5.4zm0 7.2h-.4l.4.5zm0 9.7v-.4h-.4zm3-.4q1.7 0 2.8-.4 1.1-.5 1.7-1.3.5-.9.5-2.1 0-1.2-.5-2.1-.5-.8-1.4-1.3-1-.5-2.3-.5h-3.8v7.7zm-3-7.7v-.4l-.4.4zm22.6-10.7 6.5 18.4 2.2.5v1.2h-7.5v-1.2l2.7-.5-1.3-3.9h-8.2l-1.4 3.9 2.7.5v1.2h-7.1v-1.2l2.2-.5 6.8-18.3zm6.5 18.4-.5-.1.7.6zm-2.6 0 .1.3.2-.4zm-1.3-3.9h.3l-.4-.4zm-8.2 0 .1-.3-.4.3zm-1.4 3.9h-.3l.2.3zm-2.2 0-.2.4.7-.5zm7.6-16.9.3.8.2-.8zm-3.4 11.3h-.4l.2.4zm7.1 0 .2.4.2-.4zm-3.3-10.5-3.8 10.5h7.1zm22.9 16.1h-.4v.4zm.1-3.4h1.5v5.2h-13.8v-1.3l2.5-.5v-16.5l-2.5-.4V199l7.7-.1v1.2l-2.8.6v16.5h6.9zm-9.8 3.4v.4l.4-.5zm0-16.5.3.1-.3-.5zm2.3 0v-.5l-.3.5zm0 16.5h-.4l.4.4zm20.8-18.3 6.5 18.4 2.2.5v1.2h-7.5v-1.2l2.7-.5-1.3-4h-8.2l-1.5 4 2.7.5v1.2h-7v-1.2l2.2-.5 6.8-18.3zm6.5 18.4-.5-.2.7.6zm-2.7 0 .1.3.3-.4zm-1.3-3.9h.3l-.4-.3zm-8.2 0 .1-.4-.4.4zm-1.4 3.9h-.3l.2.3zm-2.2 0-.2.4.6-.5zm7.7-17 .2.8.3-.7zm-3.4 11.3h-.4l.2.3zm7.1 0 .2.4.2-.4zm-3.4-10.5-3.7 10.5h7.1zm24.1-.8v-1.2l7-.2v1.3l-2.5.5V219h-2.7L245 202v15.2l2.5.6v1.2h-7v-1.2l2.5-.6v-16.5l-2.5-.4v-1.2l5.3-.2 10.6 16.8v-15zm4.5.5v-.5l-.4.5zm-13.4 1.3v-.6h-.3zm0 15.3-.4-.1.4.5zm-2 0v.5l.4-.6zm0-16.5.3.1-.3-.5zm13.4 14.9v.6l.3-.1zm0-14.9.4.1-.4-.5zm15.6 18.5q-2.3 0-4.2-1.2-1.9-1.2-3-3.4-1.1-2.3-1.1-5.6t1.1-5.6q1.1-2.3 3.2-3.6 2-1.2 4.6-1.2 1.5 0 3 .3 1.6.4 3.3 1.1l-.2 4.5h-1.5l-.4-3.2q-1-.4-2-.6-1.1-.2-2.1-.2-2 0-3.5 1-1.4.9-2.2 2.8-.8 1.8-.8 4.4 0 2.7.9 4.6.8 1.9 2.2 2.9 1.5 1 3.3 1 1.3 0 2.8-.5 1.4-.6 2.8-1.8l.9 1.4q-1.7 1.5-3.5 2.2-1.8.7-3.6.7zm4.8-17.9q.2.1.4.1l-.5-.4zm18.3 15.9h-.5l-.1.4zm0-3h1.5v4.8h-14.5v-1.3l2.4-.5v-16.5l-2.4-.4v-1.3l4.8-.1h9.3v4.5h-1.4l-.5-2.8h-7.4v7.2h7.2v1.7h-7.2v7.7h7.8zm-10.6 3v.4l.4-.5zm0-16.5.3.1-.3-.6zm9.8 0h.4l-.5-.4zm-7.4 0v-.4l-.5.4zm0 7.2h-.4l.4.4zm0 1.7v-.4l-.4.4zm0 7.7h-.4l.4.4z"/></svg>