<svg version="1.2" xmlns="http://www.w3.org/2000/svg" width="400" height="300"><path d="M220.1 105.6c0-10.9 8.8-19.8 19.7-19.8 11 0 19.8 8.9 19.8 19.8q0 2.4-.5 4.7-.6.7-.9 1.5c-3.1 7.6-10.4 12.6-18.7 12.6-3.1 0-5.7 2.5-5.7 5.7v38h-73.7v-38.7c0-2.6-1.8-5-4.4-5.6-9.1-2.2-15.4-10.2-15.4-19.5 0-11.1 9-20.1 20.1-20.1q1.5 0 3 .3c2.9.4 5.7-1.4 6.5-4.2 3.3-12 14.5-20.5 27-20.5 6.5 0 12.6 2.2 17.7 6.2m-5.3 46.5c-.5-2.2-.8-4.6-.8-6.9 0-17.3 14.1-31.3 31.3-31.3 17.3 0 31.4 14 31.4 31.3 0 15.4-11.2 28.3-25.9 30.9v37.4c0 3.2-2.6 5.8-5.8 5.8h-85.2c-3.2 0-5.7-2.6-5.7-5.8v-40.3c-5.1-2-9.5-5.3-12.9-9.6-4.5-5.5-6.9-12.6-6.9-19.7 0-17.4 14.1-31.6 31.5-31.6 2.7-6.4 7-12 12.5-16.2 7-5.4 15.3-8.2 24.1-8.2" style="fill:none;stroke:#9f9f9f;stroke-width:4"/><path fill-rule="evenodd" d="M152.6 214.2q-1 0-1.5-.5t-.5-1.5V198q0-2 2-2 1.9 0 1.9 2v5.3h8.3V198q0-2 1.9-2 2 0 2 2v14.2q0 1-.5 1.5t-1.5.5q-.9 0-1.4-.5-.5-.5-.5-1.5v-5.6h-8.3v5.6q0 2-1.9 2zm33.5.1q-2.6 0-4.6-1.2-2-1.1-3.1-3.2-1.1-2-1.1-4.8t1.1-4.8q1.1-2.1 3.1-3.2 2-1.2 4.6-1.2 2.7 0 4.7 1.2 2 1.1 3 3.2 1.1 2 1.1 4.8 0 2.7-1.1 4.8-1 2.1-3 3.2-2 1.2-4.7 1.2zm0-3.4q2.3 0 3.5-1.5 1.3-1.6 1.3-4.3 0-2.8-1.3-4.3-1.2-1.5-3.5-1.5-2.2 0-3.4 1.5-1.3 1.5-1.3 4.3 0 2.7 1.3 4.3 1.2 1.5 3.4 1.5zm21.3 3.3q-.9 0-1.3-.5-.5-.4-.5-1.3v-14.6q0-.9.5-1.3.5-.5 1.3-.5t1.2.3q.5.3.9 1l5.4 9.8 5.4-9.8q.4-.7.8-1 .4-.3 1.2-.3.8 0 1.3.5.5.4.5 1.3v14.6q0 1.8-1.8 1.8t-1.8-1.8v-9.3l-4.1 7.5q-.3.5-.7.7-.3.3-.9.3-.5 0-.9-.3-.3-.2-.6-.7l-4.2-7.4v9.2q0 1.8-1.7 1.8zm38.7-.2h-8.8q-2.1 0-2.1-2v-13.8q0-2 2.1-2h8.8q1.5 0 1.5 1.5 0 1.6-1.5 1.6H239v4.1h6.5q1.6 0 1.6 1.6 0 1.5-1.6 1.5H239v4.4h7.1q1.5 0 1.5 1.6 0 1.5-1.5 1.5zm-107.2 22h-6.4q-2.1 0-2.1-2v-13.8q0-2 2.1-2h6.1q2.8 0 4.4 1.2 1.5 1.3 1.5 3.4 0 1.4-.7 2.5-.7 1-1.9 1.5 1.5.4 2.3 1.5.8 1.1.8 2.7 0 2.3-1.7 3.7-1.6 1.3-4.4 1.3zm-4.7-14.9v4.4h3.7q2.9 0 2.9-2.2t-2.9-2.2zm0 7.3v4.7h4.2q1.5 0 2.2-.6.7-.6.7-1.8 0-1.1-.7-1.7-.7-.6-2.2-.6zm21.8 7.8q-1.1 0-1.5-.7-.5-.7 0-1.7l6.5-14.2q.4-.8.9-1.2.6-.4 1.3-.4.7 0 1.3.4.5.4.9 1.2l6.5 14.2q.5 1 .1 1.7-.5.7-1.5.7-.8 0-1.3-.4-.4-.4-.8-1.2l-1.1-2.5H159l-1 2.5q-.4.8-.8 1.2-.4.4-1.2.4zm7.2-13.8h-.1l-2.8 6.7h5.8zm20.8 13.8q-1 0-1.5-.5t-.5-1.5V220q0-1 .5-1.5t1.5-.5q1.9 0 1.9 2v6h.1l6.7-7.1q.4-.4.9-.6.5-.3 1.1-.3.8 0 1.2.5.4.4.4 1.1-.1.6-.6 1.1l-5.9 6 6.3 6.7q.6.6.6 1.3 0 .7-.5 1.1-.4.4-1.3.4-.7 0-1.1-.3-.5-.3-1-.8l-6.8-7.2h-.1v6.3q0 1-.5 1.5t-1.4.5zm33.8-.2H209q-2 0-2-2v-13.7q0-2.1 2-2.1h8.8q1.6 0 1.6 1.5 0 1.6-1.6 1.6h-7.1v4.1h6.5q1.6 0 1.6 1.6 0 1.5-1.6 1.5h-6.5v4.5h7.1q1.6 0 1.6 1.5t-1.6 1.5zm14 .2q-1 0-1.5-.5t-.5-1.5v-14q0-2 2-2h6.1q3 0 4.6 1.5 1.7 1.4 1.7 4 0 2-1.1 3.3-1 1.3-2.9 1.8 1.4.4 2.2 1.9l1.6 2.9q.5 1 .2 1.8t-1.6.8q-.8 0-1.4-.3-.5-.4-.9-1.1l-2.4-4.5q-.4-.7-.9-.9-.6-.3-1.4-.3h-1.9v5.1q0 1-.5 1.5t-1.4.5zm1.9-14.9v5h3.5q3.2 0 3.2-2.5t-3.2-2.5zm27.2 14.9q-.9 0-1.4-.5-.5-.5-.5-1.5V228l-5.2-7.3q-.3-.6-.3-1.2.1-.6.5-1.1.5-.4 1.3-.4 1.2 0 2 1.3l3.7 5.2 3.6-5.2q.5-.7 1-1 .4-.3 1.1-.3.8 0 1.2.4.5.4.5 1.1 0 .6-.4 1.2l-5.1 7.3v6.2q0 2-2 2zm-114.6 14.9q-.5 0-.5-.6v-7.6q0-.6.5-.6.3 0 .4.1.2.1.3.3l3 5.6 3-5.6.3-.3q.1-.1.4-.1.5 0 .5.6v7.6q0 .6-.5.6-.6 0-.6-.6v-5.8l-2.6 4.7q-.1.2-.2.3-.1.1-.3.1-.2 0-.3-.1-.1-.1-.2-.3l-2.6-4.7v5.8q0 .6-.6.6zm10.1 0q-.4 0-.6-.2-.1-.3.1-.6l3.3-7.5q.1-.2.3-.4.2-.1.4-.1t.4.1q.2.2.3.4l3.4 7.5q.1.3 0 .6-.1.2-.5.2-.3 0-.4-.1-.2-.2-.3-.4l-.7-1.7h-4.4l-.7 1.7q-.1.2-.3.4-.1.1-.3.1zm3.5-7.3-1.7 4.1h3.5zm8.6 7.2h-2.3q-.7 0-.7-.7v-7.2q0-.7.7-.7h2.3q2.2 0 3.3 1.1 1.2 1.1 1.2 3.2t-1.2 3.2q-1.1 1.1-3.3 1.1zm-1.7-7.6v6.5h1.7q3.2 0 3.2-3.2 0-3.3-3.2-3.3zM180 251h-4.5q-.7 0-.7-.7v-7.2q0-.7.7-.7h4.5q.5 0 .5.5t-.5.5h-4v2.7h3.7q.5 0 .5.5t-.5.5H176v2.9h4q.5 0 .5.5t-.5.5zm8.4.1q-.5 0-.7-.6l-2.6-7.5q-.2-.3 0-.5t.5-.2q.3 0 .4.1.2.1.3.4l2.1 6.4 2.3-6.4q.2-.5.6-.5.2 0 .4.1l.2.4 2.2 6.4 2.3-6.4q0-.3.2-.4.1-.1.4-.1.3 0 .5.2.1.2 0 .5l-2.6 7.6q-.2.2-.3.4-.2.1-.4.1-.3 0-.5-.1-.1-.2-.2-.5l-2.2-6.2-2.2 6.3q-.1.2-.3.4-.1.1-.4.1zm11.4 0q-.6 0-.6-.7v-7.5q0-.6.6-.6.7 0 .7.6v7.5q0 .7-.7.7zm5.5 0q-.6 0-.6-.7v-7h-2.6q-.6 0-.6-.5t.6-.5h6.5q.5 0 .5.5t-.5.5H206v7q0 .7-.7.7zm5.5 0q-.6 0-.6-.7v-7.5q0-.6.6-.6.7 0 .7.6v3.2h4.8v-3.2q0-.6.6-.6.7 0 .7.6v7.5q0 .7-.7.7-.6 0-.6-.7v-3.2h-4.8v3.2q0 .7-.7.7zm17.3-.1h-4.4q-.6 0-.6-.6V243q0-.7.6-.7t.6.7v6.9h3.8q.6 0 .6.6 0 .5-.6.5zm5.1.1q-1.2 0-2.1-.5-.9-.6-1.4-1.6-.5-1-.5-2.3 0-1.4.5-2.4t1.4-1.5q.9-.5 2.1-.5 1.3 0 2.2.5.9.5 1.4 1.5.5 1 .5 2.4 0 1.3-.5 2.3-.5 1-1.4 1.6-.9.5-2.2.5zm0-1.1q1.3 0 2-.9.8-.8.8-2.4 0-1.6-.7-2.5-.8-.8-2.1-.8-1.2 0-2 .8-.7.9-.7 2.5t.7 2.4q.8.9 2 .9zm9 1.1q-.5 0-.7-.5l-3.3-7.5q-.2-.4 0-.6.2-.2.5-.2t.4.1q.2.1.3.4l2.8 6.6 2.9-6.6q.1-.3.2-.4.2-.1.4-.1.4 0 .5.2.2.3 0 .6l-3.3 7.5q-.1.2-.3.4-.1.1-.4.1zm10.6-.1h-4.5q-.7 0-.7-.7v-7.2q0-.7.7-.7h4.5q.5 0 .5.5t-.5.5h-4v2.7h3.7q.5 0 .5.5t-.5.5h-3.7v2.9h4q.5 0 .5.5t-.5.5z" style="fill:#9f9f9f"/></svg>