<svg version="1.2" xmlns="http://www.w3.org/2000/svg" width="400" height="300"><path d="M104.9 226.4c-3.1-11.4-3.2-23.7-.5-35.3 2.5-10.4 7.4-20 3-30.8-2.7-6.9-7.7-12.8-11.9-18.8-2.7-3.8-5.3-8-6.6-12.6-.8-2.8-2-9.8.3-12.1 1-.9 2.5-1.1 3.8-1.2 10.4-.8 20.9-1.8 30.5-6.1 8.4-3.8 14-14.6 16.9-23 2-5.8 2.8-12.4.3-18.1-2.5-5.6-8.9-9.8-14.8-8.1-3.9 1.2-6.8 4.5-8.3 8.2-1.4 3.8-1.6 7.9-1.5 11.9 0 1.8.1 3.8-.8 5.4-.9 1.6-3.2 2.6-4.6 1.4-.7-.6-1-1.6-1.1-2.5-.2-1.5.1-3.3 1.4-4.2 4.8-2.9 5.4 5.2 6.6 7.9 1.1 2.6 2.2 5.3 3.9 7.6 4.1 5.7 11.3 5.8 17.5 4 8.8-2.5 32.7-16.6 36.5-19.6.8-.7 1.7-1.5 1.7-2.6-.1-1.5-1.8-2.2-3.2-2.6-4.7-1.1-9.5-1.6-14.3-2-20.8-1.8-41.8-3.4-62.6-1.3-4.1.4-9.3.4-12.4 3.4-.7.7-1.2 1.7-1 2.7.1 1 .8 1.9 1.5 2.6 6.7 7 14.5 12.2 22.2 17.8 6.2 4.5 12.8 9.3 19.8 12.6 6.2 3 12.6 5.5 19 8.1 4.7 2 10.4 4.3 7.3 10.6-2 4.3-5.2 6.6-8.2 10.1-4.7 5.5-9.3 10.8-11.2 17.9-2.7 10.1 3.8 17.2 11.6 22.9 5.7 4.2 12.1 8.2 15.4 14.5 4 7.7 2.5 17.3-1.7 24.8-4.2 7.6-10.7 13.5-17 19.3" style="fill:none;stroke:#9f9f9f;stroke-width:3.5"/><path fill-rule="evenodd" d="M179.6 220.1q-.7 0-1.3-.4-.6-.3-.9-.9-.3-.7-.3-1.5 0-.9.3-1.5.4-.6.9-1 .6-.3 1.3-.3.9 0 1.4.3.5.3.8 1l-.4.2q-.4-1.1-1.8-1.1-.6 0-1 .2-.5.3-.8.9-.2.5-.2 1.3 0 1.1.5 1.8.6.6 1.5.6.7 0 1-.2.4-.3.6-.7.2-.4.2-.8v-.3h-1.8v-.4h2.2v2.7h-.3v-1q-.3.5-.7.8-.5.3-1.2.3zm6.7-5.6q.8 0 1.4.3.5.4.8 1 .3.6.3 1.5 0 .8-.3 1.5-.3.6-.8.9-.6.4-1.4.4-.7 0-1.3-.4-.6-.3-.9-.9-.3-.7-.3-1.5 0-.9.3-1.5t.9-1q.6-.3 1.3-.3zm0 .4q-.6 0-1.1.2-.4.3-.7.9-.2.5-.2 1.3 0 .7.2 1.3.3.5.7.8.5.3 1.1.3.7 0 1.1-.3.5-.3.8-.8.2-.6.2-1.3 0-.8-.2-1.3-.3-.6-.8-.9-.4-.2-1.1-.2zm7.4-.3h4.4v.3h-2v5.1h-.4v-5.1h-2zm8.2 0q.8 0 1.4.3.5.3.8 1 .3.6.3 1.5 0 .8-.3 1.5-.3.6-.8.9-.6.4-1.4.4-.7 0-1.3-.4-.6-.3-.9-.9-.3-.7-.3-1.5 0-.9.3-1.5.3-.7.9-1 .6-.3 1.3-.3zm0 .3q-.6 0-1.1.3-.4.3-.7.9-.2.5-.2 1.3 0 .7.2 1.3.3.5.7.8.5.3 1.1.3.7 0 1.1-.3.5-.3.7-.8.3-.6.3-1.3 0-.8-.3-1.3-.2-.6-.7-.9-.4-.3-1.1-.3zm9.7 5.2h-.6l-1.7-5.5h.5l1.5 5.1 1.4-5.1h.5l1.4 5.1 1.6-5.1h.4l-1.7 5.5h-.5l-1.1-3.8-.3-1.2-.4 1.2zm9.2-5.6q.7 0 1.3.4.6.3.9.9.3.7.3 1.5 0 .9-.3 1.5-.3.7-.9 1-.6.3-1.3.3-.8 0-1.4-.3-.5-.3-.8-1-.3-.6-.3-1.5 0-.8.3-1.5.3-.6.8-.9.6-.4 1.4-.4zm0 .4q-.7 0-1.1.3-.5.3-.7.8-.3.6-.3 1.3 0 .8.3 1.3.2.6.7.9.4.3 1.1.3.6 0 1.1-.3.4-.3.7-.9.3-.5.3-1.3 0-.7-.3-1.3-.3-.5-.7-.8-.5-.3-1.1-.3zm4.8-.3h2q.8 0 1.3.4t.5 1.2q0 .6-.4.9-.3.4-.9.5l1.6 2.5h-.5l-1.6-2.4H226v2.4h-.4zm.4 2.7h1.6q.6 0 1-.3.3-.3.3-.9 0-.6-.3-.9-.4-.3-1-.3H226zm5.7-2.7h.5v3.1l2.9-3.1h.6l-2.2 2.2 2.2 3.3h-.5l-2-3-1 1.2v1.8h-.5zm11.5-.1q.8 0 1.4.4.5.3.8.9.3.6.3 1.5t-.3 1.5q-.3.6-.8 1-.6.3-1.4.3-.7 0-1.3-.3-.6-.4-.9-1-.3-.6-.3-1.5t.3-1.5q.3-.6.9-.9.6-.4 1.3-.4zm0 .4q-.6 0-1.1.3-.4.3-.7.8-.2.6-.2 1.3 0 .8.2 1.3.3.5.7.8.5.3 1.1.3.7 0 1.1-.3.5-.3.8-.8.2-.5.2-1.3 0-.7-.2-1.3-.3-.5-.8-.8-.4-.3-1.1-.3zm8.6-.3h.4v5.4h-.5l-2.9-4.2-.4-.7V220h-.4v-5.4h.5l2.9 4.3.4.7v-.7zm8.2 0 2.2 5.4h-.4l-.7-1.7h-2.6l-.7 1.7h-.4l2.1-5.4zm-.2.4-1.2 3h2.3zm6.7-.4h4.4v.3h-2v5.1h-.4v-5.1h-2zm6.4 0h2q.8 0 1.3.4.5.5.5 1.2 0 .6-.4 1-.3.3-.9.5l1.6 2.4h-.5l-1.6-2.4h-1.6v2.4h-.4zm.4 2.7h1.6q.6 0 1-.3.3-.3.3-.9 0-.5-.3-.8-.4-.3-1-.3h-1.6zm9.6 2.7H279v-5.4h3.8v.3h-3.3v2.1h2.6v.4h-2.6v2.2h3.4zm5.9-5.4h.4v5.4h-.5l-2.9-4.2-.4-.7V220h-.4v-5.4h.5l2.9 4.2.4.8v-.7zm3 0h1.7q1.3 0 2 .7t.7 2q0 1.3-.7 2t-2 .7h-1.7zm.4 5.1h1.4q1 0 1.6-.6.6-.6.6-1.8 0-1.1-.6-1.7-.6-.6-1.6-.6h-1.4zm6.1-.3q.1 0 .2.1t.1.3q0 .2-.1.3-.1.1-.2.1-.2 0-.3-.1-.1-.1-.1-.3 0-.2.1-.3.1-.1.3-.1zm-134.5-44.8q-2.2 0-4.3-.8-1.9-.8-3.5-2.2-1.5-1.5-2.5-3.4-.9-2.1-.9-4.5 0-2.2.8-4.3.7-2.1 2.1-3.7 1.5-1.6 3.6-2.6 2.2-.9 5-.9 2.2 0 4.2.8 2 .7 3.6 2.2 1.5 1.4 2.4 3.4.9 2 .9 4.4 0 2.3-.7 4.3-.8 2.1-2.2 3.7-1.4 1.6-3.6 2.6-2.1 1-4.9 1zm.5-1.4q2.3 0 3.8-1.1 1.6-1.1 2.3-3 .8-1.9.8-4.4 0-2.2-.5-4.2-.4-2-1.4-3.5-.9-1.6-2.4-2.5-1.5-.9-3.4-.9-2.2 0-3.8 1.1-1.5 1.1-2.3 2.9-.8 1.9-.8 4.4 0 2.3.5 4.2.5 2 1.4 3.6 1 1.6 2.4 2.5 1.4.9 3.4.9zm34.3 1.6q-1.2 0-2.1-.2-1-.3-1.7-.8t-1.3-1.2q-.8-1-1.5-1.9-.7-1-1.5-2.1-.7-1.2-1.8-2.9-.4-.8-1.2-1.2-.5-.3-1.1-.4-.6-.1-1-.2-.2 0-.3.2-.1.2-.1.5v6q0 1 .5 1.7t1.8.9q.5.1.7.2.3.2.3.4t-.2.3q-.3.1-.7.1h-1.5q-.6-.1-1.2-.1-.5-.1-1.2-.1-.8 0-1.5.1-.7 0-1.4.1h-2.2q-.2-.1-.2-.4 0-.4.9-.6 1.3-.2 1.8-.7.6-.5.6-1.7v-14.3q0-1.1-.1-1.7-.2-.6-.6-.8-.4-.3-1.3-.4-.5-.1-.8-.2-.2-.2-.2-.5 0-.2.2-.2.3-.2.7-.2.9 0 1.5.1H184.3q.5-.1 1.1-.1.7-.1 1.7-.1 3.7 0 5.7 1.4 2 1.3 2 4 0 1.5-.7 2.5-.6 1.1-1.5 1.8t-1.8 1.1q-.2 0-.2.1.1.1.1.3 1 1.5 2 2.9.9 1.4 2 2.7 1.1 1.2 2.5 2.5.9.8 1.9 1 1 .2 2.2.2.4 0 .4.4 0 .6-.5.9-.5.3-1.2.5-.7.1-1.4.1zm-12-11.7q1.4 0 2.4-.6 1-.7 1.5-1.8.6-1.1.6-2.3 0-1.4-.4-2.5-.3-1.1-1.3-1.7-1-.6-2.7-.6-1 0-1.3.6-.3.7-.3 2.4-.1.8-.1 2.2v3.1q0 .8.4 1 .4.2 1.2.2zm28.3 11.2h-1.8q-1.2-.1-2.5-.1-1.4-.1-2.4-.1h-1.3q-.6.1-1.2.1h-1.4q-.4 0-.7-.1-.2-.1-.2-.3 0-.3.2-.4.3-.1.8-.2 1.2-.2 1.7-.7.5-.5.5-1.6V156q0-1.2-.5-1.6-.5-.5-1.7-.8-.5-.1-.8-.2-.2-.2-.2-.4 0-.3.2-.3.3-.2.7-.2.8 0 1.4.1H209.6q.9 0 1.8-.1t1.7-.1h1.2q3.1 0 5.3.7 2.3.8 3.9 2.3 1.5 1.4 2.2 3.3.8 1.9.8 4.2 0 2.3-.8 4.4-.9 2-2.4 3.6-1.6 1.6-3.7 2.5-2.1.9-4.7.9zm-.4-1.3q2.5 0 4.3-1.2 1.8-1.2 2.8-3.3 1-2.2 1-4.9 0-2.4-.7-4.2-.7-1.8-1.9-3.1t-2.7-2q-1.5-.7-3.2-.7-1.3 0-2.2.1-.9.1-1.4.5-.4.3-.4 1.2V170q0 1.2.6 1.9.6.6 1.6.8 1 .3 2.2.3zm16 1.3q-.4 0-.7-.1-.2-.1-.2-.3 0-.5 1-.7 1.2-.2 1.7-.7.6-.5.6-1.6V156q0-1.2-.5-1.7t-1.7-.7q-.5-.1-.7-.3-.2-.1-.2-.4 0-.2.2-.2.2-.2.6-.2 1.1 0 2 .1h1.7q.8.1 1.8.1h2.8q1.5-.1 2.7-.1h1.8q.8-.1.9-.1.2 0 .4.1t.3.3q.1 1 .3 2 .2 1 .2 1.7 0 .3-.2.4-.1.1-.3.1-.1 0-.2-.1t-.2-.3q-.2-.6-.4-1.1-.2-.6-.5-.9-.4-.4-1-.7-.6-.2-1.3-.2h-3.6q-.5 0-1 .3-.4.3-.4.9v6.7q0 .4.2.6.2.2.4.2h3.2q.9 0 1.3-.5.3-.4.6-1.3.2-.7.6-.7.2 0 .3.2.1.1.1.4v.7q0 .5-.1 1v1.6q0 .5.1 1v.8q0 .2-.1.4 0 .2-.2.2-.5 0-.8-.9-.2-.9-.6-1.3-.3-.5-.9-.5h-3.1q-.5 0-.8.2-.2.2-.2.7v6.3q0 1.2.5 1.6.5.4 1.5.4h2.6q.9 0 1.6-.1.7-.1 1.2-.5.6-.4 1-1t.9-1.6q.1-.2.2-.3.2-.1.3-.1.2 0 .3.2.1.1.1.4 0 .3-.2 1.1-.1.7-.4 1.5-.2.8-.4 1.3-.1.3-.3.4-.1.2-.3.2-1.2 0-2.5-.1h-2.6q-1.4-.1-2.7-.1h-4q-.6.1-1.3.1-.6.1-1.4.1zm38.9.5q-1.2 0-2.1-.2-.9-.3-1.7-.8-.7-.5-1.3-1.2-.8-1-1.5-1.9-.7-1-1.5-2.1-.7-1.2-1.7-2.9-.5-.8-1.3-1.2-.5-.3-1.1-.4-.6-.1-.9-.2-.3 0-.4.2-.1.2-.1.5v6q0 1 .5 1.7.6.7 1.8.9.5.1.7.2.3.2.3.4t-.2.3q-.3.1-.7.1h-1.4q-.7-.1-1.3-.1-.5-.1-1.1-.1-.8 0-1.6.1-.7 0-1.4.1h-2.2q-.2-.1-.2-.4 0-.4 1-.6 1.2-.2 1.7-.7.6-.5.6-1.7v-14.3q0-1.1-.1-1.7-.2-.6-.6-.8-.4-.3-1.3-.4-.5-.1-.7-.2-.3-.2-.3-.5 0-.2.3-.2.2-.2.6-.2.9 0 1.5.1H255.1q.5-.1 1.2-.1.6-.1 1.6-.1 3.7 0 5.7 1.4 2 1.3 2 4 0 1.5-.7 2.5-.6 1.1-1.5 1.8t-1.8 1.1q-.2 0-.2.1.1.1.1.3 1.1 1.5 2 2.9.9 1.4 2 2.7 1.1 1.2 2.5 2.5.9.8 1.9 1 1 .2 2.2.2.5 0 .5.4 0 .6-.6.9-.5.3-1.2.5-.7.1-1.4.1zm-12-11.7q1.4 0 2.4-.6 1-.7 1.5-1.8.6-1.1.6-2.3 0-1.4-.4-2.5-.3-1.1-1.3-1.7-.9-.6-2.7-.6-.9 0-1.3.6-.3.7-.3 2.4-.1.8-.1 2.2v3.1q0 .8.4 1 .5.2 1.2.2zm17.6 11.2q-.3 0-.6-.2-.2-.1-.2-.3 0-.2.3-.4l.4-.2q1.3-.3 1.9-.7.6-.5.6-1.6v-15.2q0-.8-.2-1.1-.1-.4-.6-.6-.4-.2-1.3-.4t-.9-.7q0-.2.2-.3.3-.1.6-.1.9 0 1.5.1h1.3q.6.1 1.3.1h1.5q.6-.1 1.4-.1h1.5q.4 0 .6.1.2 0 .2.2 0 .3-.2.5-.2.1-.7.2-1.3.3-2 .7-.7.3-.7 1.3v15.2q0 1.1.4 1.5.5.4 1.9.4h3.8q.8 0 1.5-.2.6-.3 1-.6.6-.6 1-1.1.3-.5.7-1.4l.4-.6q.2-.4.4-.4t.3.3q.1.2.1.4V169.4q-.3.9-.5 1.6-.2.7-.3 1.3-.1.6-.2 1.4 0 .2-.1.4t-.4.2q-1.2 0-2.7-.1h-2.9q-1.5 0-3-.1h-4.5q-.9.1-1.8.1-.8.1-1 .1zm24 0q-.5 0-.7-.1-.3-.1-.3-.3 0-.3.3-.4.3-.2.8-.3 1.2-.2 1.8-.9.6-.6.6-1.8v-4.7q0-.9-.3-1.6l-.6-1.2-4-6.4q-.2-.5-.7-1.1-.4-.6-1-1.1-.5-.6-1.1-.7-.4-.2-.7-.3-.3-.2-.3-.5 0-.2.3-.2.2-.1.6-.1h2.1q1.1.1 2.3.1.9 0 1.6-.1h1.5q.4 0 .7.1.3 0 .3.2 0 .3-.3.5-.3.1-.8.2-.6.2-.9.4-.3.2-.3.6 0 .5.4 1.2l3.1 5.7q.5 1 .8 1 .2 0 .4-.2.2-.3.5-.8.8-1.3 1.5-2.4.6-1.2 1.4-2.7l.4-.8q.1-.4.1-.7 0-.7-.5-.9-.5-.3-1-.3-.3-.1-.7-.3-.4-.2-.4-.4t.3-.3q.3-.1.7-.1h1.4q.6.1 1.4.1.9 0 1.8-.1t1.6-.1q.4 0 .7.1.2.1.2.3 0 .3-.4.5-.5.1-1 .3-1 .2-1.6.9-.6.7-1.3 1.8-.6 1-1.1 1.8-.5.7-.9 1.3l-.8 1.4q-.5.7-1 1.6-.4.6-.6 1.1-.2.4-.2.9-.1.4-.1 1.1v4.9q0 1.2.6 1.8.7.6 1.9.9.5.1.8.2.3.2.3.4 0 .3-.3.4-.3.1-.7.1-.8 0-1.5-.1-.7 0-1.3-.1h-2.9q-.7.1-1.4.1-.7.1-1.5.1zm-124 29.9h-.6q-.2-.1-.2-.4 0-.4.9-.6 1.3-.2 1.8-.7.4-.5.4-1.7v-14.2q0-1.4-.4-2.1-.3-.7-1.6-.9-.5-.1-.7-.3-.2-.1-.2-.4 0-.2.2-.2.2-.2.6-.2 1.1 0 1.9.1h1.7q.8.1 1.8.1h4.8q1.1 0 2-.2.9-.2 1.6-.2.2 0 .4.1t.3.3q0 .5.1 1.3v2.4q0 .7-.3.7-.2 0-.3-.1-.2-.1-.3-.3-.1-.7-.4-1.1-.2-.5-.5-.9-.4-.5-1-.6-.5-.2-1.2-.2h-3.6q-.8 0-1.1.4-.2.5-.3 1.2V191.8q0 .3.1.5.2.2.4.2h2q1-.1 1.6-.1.8 0 1.3-.4t.7-1.1l.3-.3q.2-.2.3-.2.2 0 .3.1.2.2.1.5v1.1q-.1.5-.1.9 0 .5.1 1V195.8q-.1.1-.3.1-.3 0-.5-.2-.2-.3-.2-.6-.3-.8-.7-1.1-.5-.3-.9-.3h-3.7q-.3 0-.6.2-.2.2-.2.6v3.1q.1 1.6.1 3.2.1 1.1.5 1.6.5.6 1.8.8.5.1.7.2.3.2.3.4t-.3.3q-.2.1-.6.1h-1.5q-.6-.1-1.2-.1-.5-.1-1.2-.1t-1.4.1-1.4.1H175zm13.9.1q-.4 0-.6-.1-.3-.2-.3-.4 0-.3.3-.4.2-.2.7-.4.9-.2 1.6-.7.7-.6 1.2-1.7.9-2 1.7-3.8l1.4-3.6q.7-1.8 1.4-3.7.8-1.9 1.5-4 .3-.8.4-1.3.2-.5.2-.9l.8-.2.8-.4q.4-.2.6-.5.2-.4.4-.6h.1q.1-.1.1.1.1.1.2.3 0 .2.1.5.8 2.4 1.6 4.9l1.6 4.8q.8 2.4 1.5 4.4l1.2 3.6q.3 1.1.8 1.7.5.5 1.1.8.5.3 1.2.4.5.1.7.3.3.2.3.5 0 .2-.3.3h-2q-.8-.1-1.7-.1H201.8q-.4 0-.7-.1-.2-.1-.2-.3 0-.3.3-.4.3-.2.7-.3 1.1-.2 1.6-.5.5-.4.4-1.1 0-.6-.2-1.4-.2-.8-.5-1.8-.2-.9-.5-1.7 0-.3-.2-.4H195.8q-.1 0-.3.1-.1.1-.2.4-.1.4-.4 1.1-.2.6-.4 1.3-.1.6-.3 1.2-.1.6-.2.8-.1.9.4 1.4.5.4 1.6.7 1 .2 1 .6 0 .3-.3.4h-3.8q-1.1 0-2.1.1t-1.9.1zm7.9-9.6h4.8q.4 0 .4-.1v-.4l-2.5-7.8q-.1-.5-.2-.5t-.3.4l-2.8 7.9q-.1.2-.1.3 0 .1.2.2h.5zm21.4 9.9q-1.4 0-2.6-.4-1.3-.4-2.3-1.1-.1-.2-.3-.3l-.2-.4q-.2-.8-.3-1.9-.1-1.2-.1-2 0-.3.2-.4.2-.1.5-.1.2 0 .3.1.2.1.3.3.6 2.5 2 3.8 1.4 1.2 2.9 1.2 1.2 0 2-.5t1.2-1.3q.5-.9.5-2 0-1.2-.4-2-.5-.8-1.3-1.4-.8-.6-2-1.4l-2.6-1.6q-1.3-.9-2.1-2-.8-1.2-.8-2.9 0-1.8.8-3.1.8-1.4 2.5-2.2 1.6-.8 3.9-.8 1.1 0 2.1.3 1 .2 1.6.4.3.1.4.4.2.2.3.5.2.7.4 1.7.2.9.2 1.8 0 .4-.5.4-.3 0-.6-.1-.2-.2-.3-.4-.7-1.8-1.7-2.8-.9-.9-2.4-.9-1 0-1.8.3-.8.4-1.3 1.2-.5.7-.5 2 0 .9.6 1.7.7.7 1.7 1.4t2.3 1.5q1.4.8 2.5 1.7 1 .9 1.7 2.1.6 1.1.6 2.7 0 2-.9 3.5t-2.6 2.2q-1.7.8-3.9.8zm10.6-.4q-.4 0-.6-.1-.2-.1-.2-.3 0-.4.9-.6 1.2-.2 1.6-.7.4-.5.4-1.6v-15q0-1.1-.3-1.6-.3-.4-1.5-.7-1-.2-1-.6 0-.2.2-.3.3-.2.7-.2.8 0 1.4.1h1.1q.6.1 1.3.1h1.2q.6-.1 1.2-.1h1.5q.9 0 .9.4 0 .2-.3.4-.2.1-.7.2-1.2.3-1.7.8-.5.6-.5 1.5v6.3q0 .3.1.3.2.1.4.1h11q.3 0 .3-.4v-6.3q0-.9-.5-1.4-.4-.6-1.7-.9-.5-.1-.7-.2-.2-.2-.2-.4 0-.4.8-.4h1.5q.7 0 1.3.1h1.4q.6 0 1.1-.1h1q.5-.1 1.4-.1.4 0 .6.2.3.1.3.3 0 .4-1 .6-1.2.3-1.5.8-.3.5-.3 1.5v14.9q0 1.2.3 1.7.4.5 1.6.7.9.2.9.6 0 .2-.3.3-.2.1-.6.1h-1.4q-.6-.1-1.1-.1h-2.5q-.6 0-1.3.1h-1.4q-.4 0-.7-.1-.2-.1-.2-.3 0-.3.2-.4.3-.1.8-.2 1.1-.2 1.6-.7.6-.6.6-1.6v-6.7q-.1-.2-.3-.2h-11.2q-.3 0-.3.4v6.3q0 1 .7 1.6.6.7 1.8.9.5.1.7.2.2.1.2.4 0 .2-.2.3-.2.1-.6.1h-1.5q-.7-.1-1.4-.1h-2.6q-.6 0-1.2.1h-1.5zm26.2 0h-.6q-.2-.1-.2-.4 0-.4.9-.6 1.3-.2 1.9-.7.6-.5.6-1.6V186q0-1.2-.5-1.6-.4-.5-1.7-.8-1-.2-1-.7 0-.2.3-.3.2-.1.6-.1.8 0 1.5.1h1.3q.6.1 1.4.1h1.2q.7-.1 1.3-.1h1.5q.4 0 .6.1.2 0 .2.2 0 .3-.2.5-.3.1-.7.2-1.3.3-1.8.8-.5.4-.5 1.6v14.9q0 1.1.6 1.6.6.4 1.9.7.4.1.7.2.2.2.2.4t-.2.3q-.2.1-.6.1h-1.5q-.7-.1-1.4-.1H258q-.7 0-1.4.1H255zm22.5.4q-2.2 0-4.2-.8t-3.6-2.2q-1.5-1.5-2.5-3.4-.8-2.1-.8-4.5 0-2.2.7-4.3.7-2.1 2.2-3.7 1.4-1.6 3.6-2.6 2.1-.9 4.9-.9 2.2 0 4.2.8 2 .7 3.6 2.2 1.5 1.4 2.4 3.4.9 2 .9 4.4 0 2.3-.7 4.3-.8 2.1-2.2 3.7-1.4 1.6-3.6 2.6-2.1 1-4.9 1zm.5-1.4q2.3 0 3.8-1.1 1.6-1.1 2.3-3 .8-1.9.8-4.4 0-2.2-.5-4.2-.4-2-1.4-3.5-.9-1.6-2.4-2.5-1.4-.9-3.4-.9-2.2 0-3.8 1.1-1.5 1.1-2.3 2.9-.7 1.9-.7 4.4 0 2.3.4 4.2.5 2 1.4 3.6 1 1.6 2.4 2.5 1.5.9 3.4.9zm34.4 1.5q-.3 0-1.3-.5-.9-.5-1.7-1.7-.4-.4-1.1-1.2-.8-.9-1.8-2.1-1-1.1-2.1-2.5-1.1-1.3-2.3-2.6-1.1-1.3-2.1-2.4-1-1.2-1.8-2.1-.8-.9-1.2-1.3l-.3-.3q-.1-.2-.3-.2-.1 0-.2.3v.4q-.1 1.6-.1 3.7V200.6q0 .9.5 1.7.5.6 1.8.9.5.1.7.2.3.2.3.4t-.2.3q-.3.1-.7.1h-1.4q-.4-.1-.8-.1h-2.2q-.4.1-.8.1h-1.8q-.2-.1-.2-.4 0-.2.2-.3.3-.2.8-.3.9-.3 1.3-1t.5-1.7q.1-1.3.3-3.3.1-2 .2-4.6.1-2.5.1-5.2 0-1.8-.9-2.5-.8-.8-2.2-1.3-.2 0-.6-.2-.4-.2-.4-.5t.3-.4q.3-.1.5-.1.8 0 1.5.1h1.2q.6 0 1.3.1h1.5q.3 0 .5.1l.3.3q.3.5 1.1 1.4.8.9 1.8 2.2 1.1 1.2 2.3 2.7 1.1 1.3 2.3 2.8 1.2 1.4 2.3 2.6 1 1.3 1.8 2.2.8.9 1.1 1.3.1.1.3.4.3.2.4.2.3 0 .4-.6V185.6q-.1-.7-.7-1.2-.7-.6-1.4-.7-.5-.1-.9-.3-.4-.1-.4-.4 0-.2.4-.3.4-.1.8-.1h4.5q.6-.1 1.5-.1.4 0 .7.1.2.1.2.3 0 .5-1 .7-1.2.2-1.6.6-.4.4-.5 1.3v1.7q0 1.2-.1 2.8v11.6q.1.7.1 1.2.1.6.1.8 0 .7-.2.9-.3.2-.6.2z" style="fill:#9f9f9f"/></svg>