<svg version="1.2" xmlns="http://www.w3.org/2000/svg" width="400" height="300"><style>.s0{fill:none;stroke:#9f9f9f;stroke-linecap:round;stroke-linejoin:round;stroke-width:3.8}</style><path class="s0" d="M228.6 116.7c-6.7 6.7-14.2 13.1-26.6 23.2-12.4-10.1-19.9-16.5-26.6-23.2-14.8-14.5-13.6-27.8-13.6-27.8v-.8c0-11.2 9.4-20.9 21-20.9 8.6 0 15.9 5.5 19.2 12.5 3.3-7 10.7-12.5 19.2-12.5 11.6 0 21 9.7 21 20.9v.8s1.2 13.3-13.6 27.8z"/><path class="s0" d="M150.7 138.8s-4.3-8.6-7.1-10.9c-2.8-2.3-1.5-5.6 3.5-4.8 5.1.8 12 9.9 15.4 14 3.4 4.1 7.2 4.5 7.2 4.5 12.5 1.8 16.1 2.7 22.9 13.4 8.8 13.9 2.2 20.3-7 19.7-9.3-.6-14.2-5.2-14.2-5.2s-13-8.3-18.1-10.6c-5.1-2.3-16.3-25.8-18.9-32.1-2.6-6.3-.6-28.7 3.1-28.6 3.6.2 5.6 2.3 5.6 10.5 0 8.1.8 12 .8 12m116.2 0s.8-3.9.8-12c0-8.2 2-10.3 5.7-10.5 3.6-.1 5.6 22.3 3 28.6-2.6 6.3-13.8 29.8-18.9 32.1-5 2.3-18.1 10.6-18.1 10.6s-4.9 4.6-14.2 5.2c-9.2.6-15.8-5.8-7-19.7 6.8-10.7 10.4-11.6 22.9-13.4 0 0 3.8-.4 7.2-4.5 3.4-4.1 10.3-13.2 15.4-14 5-.8 6.3 2.5 3.5 4.8s-7.1 10.9-7.1 10.9"/><path fill-rule="evenodd" d="M168.2 233.1q-1.5 0-2.5-.6-1.1-.6-1.6-1.7-.6-1.2-.6-2.7 0-1.6.6-2.7.5-1.2 1.6-1.8 1-.6 2.5-.6.8 0 1.6.3.8.2 1.4.7.2.1.3.4 0 .2-.1.4-.1.1-.3.2-.2 0-.5-.1-1-.8-2.4-.8-1.7 0-2.5 1-.9 1.1-.9 3t.9 2.9q.8 1.1 2.5 1.1 1.4 0 2.4-.8.3-.2.5-.2.2.1.3.2.1.2.1.4t-.3.4q-.6.5-1.3.8-.8.2-1.7.2zm8.8 0q-.6 0-.6-.6v-8.9q0-.6.6-.6t.6.6v3.9h5.9v-3.9q0-.6.6-.6.5 0 .5.6v8.9q0 .6-.5.6-.6 0-.6-.6v-4h-5.9v4q0 .6-.6.6zm12.9 0q-.3 0-.4-.2-.2-.2 0-.6l3.8-8.7q.3-.6.7-.6.2 0 .4.2.2.1.3.4l3.9 8.7q.1.4 0 .6-.1.2-.4.2-.3 0-.4-.1-.2-.2-.3-.4l-.9-2.1h-5.1l-.9 2.1q-.3.5-.7.5zm4.1-8.6-2.1 5h4.3zm9.9 8.6q-.5 0-.5-.6v-8.7q0-.6.6-.6h3.3q1.6 0 2.4.7.9.8.9 2.1 0 1.1-.6 1.8t-1.7.9q.6.3 1.1 1.1l1.3 2.5q.2.3.1.6-.1.2-.5.2-.2 0-.3-.1-.2-.1-.3-.3l-1.5-2.8q-.4-.6-.8-.8-.4-.2-1.1-.2h-1.8v3.6q0 .6-.6.6zm.6-9v3.9h2.6q2.3 0 2.3-2 0-1.9-2.3-1.9zm11.9 9q-.6 0-.6-.6v-8.8q0-.6.6-.6t.6.6v8.8q0 .6-.6.6zm9.1 0q-.6 0-.6-.6v-8.3h-3.1q-.6 0-.6-.5t.6-.5h7.4q.6 0 .6.5t-.6.5h-3.1v8.3q0 .6-.6.6zm11.6 0q-.6 0-.6-.6v-4.1l-3.3-4.5q-.2-.3 0-.5.1-.3.4-.3.4 0 .7.4l2.8 3.9 2.8-3.9q.3-.4.7-.4.3 0 .4.2.1.3-.1.6l-3.3 4.5v4.1q0 .6-.5.6zM120 213.3q-.9 0-1.4-.5-.5-.5-.5-1.4v-13.3q0-1.8 1.9-1.8 1.8 0 1.8 1.8v5h7.7v-5q0-1.8 1.8-1.8t1.8 1.8v13.3q0 .9-.5 1.4-.4.5-1.3.5t-1.4-.5q-.4-.5-.4-1.4v-5.2h-7.7v5.2q0 1.9-1.8 1.9zm29.4-.3h-8.2q-1.9 0-1.9-1.9v-12.7q0-1.9 1.9-1.9h8.2q1.4 0 1.4 1.4t-1.4 1.4h-6.7v3.9h6.1q1.5 0 1.5 1.4 0 1.5-1.5 1.5h-6.1v4.1h6.7q1.4 0 1.4 1.4t-1.4 1.4zm7.1.3q-1 0-1.4-.7-.4-.7 0-1.6l6-13.2q.4-.8.9-1.2.5-.3 1.2-.3t1.2.3q.5.4.9 1.2l6 13.2q.5 1 .1 1.6-.4.7-1.3.7-.8 0-1.3-.4-.4-.4-.7-1.2l-1-2.3h-7.8l-.9 2.3q-.4.8-.8 1.2-.4.4-1.1.4zm6.7-12.9-2.6 6.2h5.3zm15.1 12.9q-.9 0-1.3-.5-.5-.5-.5-1.4v-13q0-1.9 1.9-1.9h5.7q2.7 0 4.2 1.4 1.5 1.3 1.5 3.7 0 1.9-.9 3.1-1 1.2-2.7 1.7 1.2.3 2 1.8l1.5 2.7q.5.9.2 1.7-.3.7-1.5.7-.8 0-1.3-.3-.5-.4-.8-1l-2.3-4.2q-.3-.7-.9-.9-.5-.2-1.2-.2h-1.8v4.7q0 .9-.4 1.4-.5.5-1.4.5zm1.8-13.9v4.6h3.3q2.9 0 2.9-2.3t-2.9-2.3zm20.8 13.9q-.8 0-1.3-.5t-.5-1.4v-11.9H195q-1.6 0-1.6-1.5t1.6-1.5h11.9q1.5 0 1.5 1.5t-1.5 1.5h-4.1v11.9q0 .9-.5 1.4-.5.5-1.4.5zm21.9 0q-2.4 0-4.2-1-1.7-1.1-2.7-3-.9-1.9-.9-4.5t.9-4.5q1-1.9 2.7-3 1.8-1 4.2-1 1.5 0 2.8.4 1.3.5 2.3 1.2.4.3.4.7.1.4-.1.7-.2.3-.6.3-.3.1-.7-.2-1.7-1.3-4-1.3-2.8 0-4.3 1.7-1.5 1.8-1.5 5t1.5 5q1.5 1.7 4.3 1.7 2.3 0 4-1.3.5-.3.8-.2.3 0 .5.3t.2.7q-.1.3-.4.6-1.1.8-2.4 1.3-1.3.4-2.8.4zm10.7 0q-.6 0-.8-.4-.2-.4.1-1l6.4-14.7q.4-.8 1.2-.8.3 0 .6.2t.5.6l6.5 14.7q.3.6.1 1-.2.4-.8.4-.4 0-.7-.3-.2-.2-.4-.6l-1.5-3.5h-8.6l-1.5 3.5q-.4.9-1.1.9zm6.9-14.5-3.6 8.4h7.2zm14.4 14.5q-1 0-1-1v-14.7q0-1 1-1h5.6q2.6 0 4 1.2 1.5 1.3 1.5 3.6 0 1.8-1 3t-2.9 1.5q1.1.4 1.9 1.8l2.3 4.3q.2.4.1.9-.2.4-.8.4-.4 0-.7-.1-.2-.2-.4-.6l-2.6-4.8q-.5-1-1.2-1.3-.7-.4-1.9-.4h-3v6.2q0 1-.9 1zm.9-15.1v6.4h4.4q3.9 0 3.9-3.2t-3.9-3.2zm26.4 15h-8.8q-1 0-1-1.1v-14.5q0-1 1-1h8.8q.8 0 .8.8t-.8.8h-7.9v5.7h7.4q.8 0 .8.8 0 .9-.8.9h-7.4v5.9h7.9q.8 0 .8.8 0 .9-.8.9z" style="fill:#9f9f9f"/></svg>